<?xml version="1.0" encoding="UTF-8" standalone="no"?>
<!DOCTYPE svg PUBLIC "-//W3C//DTD SVG 1.1//EN"
 "http://www.w3.org/Graphics/SVG/1.1/DTD/svg11.dtd">
<!-- Generated by graphviz version 8.1.0 (0)
 -->
<!-- Pages: 1 -->
<svg width="618pt" height="188pt"
 viewBox="0.00 0.00 618.47 188.00" xmlns="http://www.w3.org/2000/svg" xmlns:xlink="http://www.w3.org/1999/xlink">
<g id="graph0" class="graph" transform="scale(1 1) rotate(0) translate(4 184)">
<polygon fill="white" stroke="none" points="-4,4 -4,-184 614.47,-184 614.47,4 -4,4"/>
<!-- ajv -->
<g id="node1" class="node">
<title>ajv</title>
<ellipse fill="none" stroke="black" cx="337.73" cy="-162" rx="27" ry="18"/>
<text text-anchor="middle" x="337.73" y="-156.95" font-family="Times,serif" font-size="14.00">ajv</text>
</g>
<!-- fast&#45;deep&#45;equal -->
<g id="node2" class="node">
<title>fast&#45;deep&#45;equal</title>
<ellipse fill="none" stroke="black" cx="67.73" cy="-90" rx="67.73" ry="18"/>
<text text-anchor="middle" x="67.73" y="-84.95" font-family="Times,serif" font-size="14.00">fast&#45;deep&#45;equal</text>
</g>
<!-- ajv&#45;&gt;fast&#45;deep&#45;equal -->
<g id="edge1" class="edge">
<title>ajv&#45;&gt;fast&#45;deep&#45;equal</title>
<path fill="none" stroke="black" d="M312.81,-154.54C270.53,-143.58 183.69,-121.06 125.57,-106"/>
<polygon fill="black" stroke="black" points="126.63,-102.39 116.07,-103.27 124.87,-109.17 126.63,-102.39"/>
</g>
<!-- json&#45;schema&#45;traverse -->
<g id="node3" class="node">
<title>json&#45;schema&#45;traverse</title>
<ellipse fill="none" stroke="black" cx="242.73" cy="-90" rx="89.74" ry="18"/>
<text text-anchor="middle" x="242.73" y="-84.95" font-family="Times,serif" font-size="14.00">json&#45;schema&#45;traverse</text>
</g>
<!-- ajv&#45;&gt;json&#45;schema&#45;traverse -->
<g id="edge2" class="edge">
<title>ajv&#45;&gt;json&#45;schema&#45;traverse</title>
<path fill="none" stroke="black" d="M320.3,-148.16C307.41,-138.66 289.49,-125.45 274.12,-114.13"/>
<polygon fill="black" stroke="black" points="276.55,-110.84 266.42,-107.72 272.4,-116.47 276.55,-110.84"/>
</g>
<!-- require&#45;from&#45;string -->
<g id="node4" class="node">
<title>require&#45;from&#45;string</title>
<ellipse fill="none" stroke="black" cx="432.73" cy="-90" rx="82.57" ry="18"/>
<text text-anchor="middle" x="432.73" y="-84.95" font-family="Times,serif" font-size="14.00">require&#45;from&#45;string</text>
</g>
<!-- ajv&#45;&gt;require&#45;from&#45;string -->
<g id="edge3" class="edge">
<title>ajv&#45;&gt;require&#45;from&#45;string</title>
<path fill="none" stroke="black" d="M355.15,-148.16C368.05,-138.66 385.97,-125.45 401.34,-114.13"/>
<polygon fill="black" stroke="black" points="403.06,-116.47 409.03,-107.72 398.91,-110.84 403.06,-116.47"/>
</g>
<!-- uri&#45;js -->
<g id="node5" class="node">
<title>uri&#45;js</title>
<ellipse fill="none" stroke="black" cx="563.73" cy="-90" rx="30.37" ry="18"/>
<text text-anchor="middle" x="563.73" y="-84.95" font-family="Times,serif" font-size="14.00">uri&#45;js</text>
</g>
<!-- ajv&#45;&gt;uri&#45;js -->
<g id="edge4" class="edge">
<title>ajv&#45;&gt;uri&#45;js</title>
<path fill="none" stroke="black" d="M362.87,-155.02C399.09,-146.15 467.86,-128.35 524.73,-108 526.66,-107.31 528.63,-106.57 530.61,-105.8"/>
<polygon fill="black" stroke="black" points="531.5,-108.8 539.42,-101.77 528.84,-102.33 531.5,-108.8"/>
</g>
<!-- punycode -->
<g id="node6" class="node">
<title>punycode</title>
<ellipse fill="none" stroke="black" cx="563.73" cy="-18" rx="46.75" ry="18"/>
<text text-anchor="middle" x="563.73" y="-12.95" font-family="Times,serif" font-size="14.00">punycode</text>
</g>
<!-- uri&#45;js&#45;&gt;punycode -->
<g id="edge5" class="edge">
<title>uri&#45;js&#45;&gt;punycode</title>
<path fill="none" stroke="black" d="M563.73,-71.7C563.73,-64.24 563.73,-55.32 563.73,-46.97"/>
<polygon fill="black" stroke="black" points="567.23,-47.1 563.73,-37.1 560.23,-47.1 567.23,-47.1"/>
</g>
</g>
</svg>
